<?xml version="1.0" standalone="no"?>
<!DOCTYPE svg PUBLIC "-//W3C//DTD SVG 20010904//EN"
 "http://www.w3.org/TR/2001/REC-SVG-20010904/DTD/svg10.dtd">
<svg version="1.0" xmlns="http://www.w3.org/2000/svg"
 width="781.000000pt" height="781.000000pt" viewBox="0 0 781.000000 781.000000"
 preserveAspectRatio="xMidYMid meet">
<metadata>
Created by potrace 1.11, written by Peter Selinger 2001-2013
</metadata>
<g transform="translate(0.000000,781.000000) scale(0.100000,-0.100000)"
fill="#000000" stroke="none">
<path d="M2022 7348 c-19 -59 -284 -1011 -297 -1068 -24 -101 -37 -223 -36
-354 0 -72 3 -142 5 -156 3 -14 10 -56 16 -95 27 -177 90 -349 197 -545 31
-57 92 -173 208 -395 37 -71 85 -163 106 -202 22 -40 56 -106 78 -145 21 -40
66 -127 101 -193 35 -66 82 -156 105 -200 23 -44 73 -138 110 -210 37 -71 80
-152 95 -180 15 -27 47 -87 70 -133 34 -67 45 -81 55 -70 6 7 78 119 160 248
81 129 161 254 176 278 97 145 153 287 186 472 9 50 9 265 -1 330 -18 125 -57
228 -176 465 -198 395 -426 839 -530 1030 -15 28 -53 100 -85 160 -31 61 -74
142 -95 180 -52 97 -118 222 -180 340 -29 55 -67 127 -85 160 -18 33 -60 114
-95 180 -34 66 -66 124 -70 128 -4 5 -13 -6 -18 -25z"/>
<path d="M5564 7288 c-32 -51 -63 -101 -69 -111 -11 -20 -176 -287 -239 -387
-23 -36 -46 -74 -53 -85 -6 -11 -67 -110 -136 -220 -320 -513 -461 -742 -471
-760 -6 -11 -19 -31 -28 -45 -9 -14 -68 -109 -132 -212 -64 -104 -168 -272
-233 -375 -64 -104 -123 -200 -132 -215 -16 -27 -169 -273 -253 -408 -26 -41
-58 -93 -71 -115 -13 -22 -111 -179 -217 -350 -222 -358 -263 -432 -303 -560
-73 -226 -81 -478 -22 -706 33 -126 61 -187 288 -619 103 -197 140 -265 147
-273 7 -8 60 65 60 83 0 5 5 10 10 10 6 0 10 4 10 9 0 7 106 189 127 217 14
18 33 49 40 64 4 8 41 69 82 135 41 66 82 134 91 150 9 17 75 125 145 240 70
116 165 271 210 345 45 74 145 237 221 362 77 126 144 236 149 246 6 9 75 124
155 255 80 131 152 250 161 265 9 15 74 122 144 237 70 116 135 222 144 237 9
15 80 132 157 260 180 297 221 377 275 537 30 86 43 135 54 201 3 19 8 43 11
53 11 37 16 106 20 272 5 227 -10 324 -111 708 -3 9 -7 25 -9 35 -2 10 -18 72
-36 138 -17 65 -33 128 -35 139 -7 40 -83 327 -88 331 -2 2 -31 -37 -63 -88z"/>
<path d="M7284 7223 c-54 -87 -114 -183 -133 -213 -19 -30 -40 -64 -46 -75 -7
-11 -63 -103 -127 -205 -63 -102 -272 -437 -463 -745 -191 -308 -433 -698
-538 -867 -106 -169 -199 -320 -208 -335 -9 -16 -72 -118 -141 -228 -68 -110
-131 -211 -139 -225 -8 -14 -17 -27 -20 -30 -3 -3 -14 -21 -24 -40 -10 -19
-21 -37 -24 -40 -4 -3 -23 -32 -42 -65 -20 -33 -152 -247 -294 -475 -142 -228
-265 -427 -274 -442 -9 -14 -65 -106 -126 -203 -60 -97 -115 -184 -120 -193
-6 -9 -45 -73 -88 -142 -43 -69 -84 -134 -90 -145 -7 -11 -28 -44 -48 -75 -19
-30 -62 -99 -95 -153 -32 -53 -76 -125 -97 -160 -119 -195 -177 -390 -177
-599 0 -225 46 -382 187 -638 17 -30 52 -95 78 -145 26 -49 60 -112 75 -140
15 -27 42 -77 60 -110 17 -33 35 -64 39 -68 7 -6 49 56 191 283 34 54 497 781
510 800 9 13 229 359 644 1010 61 96 116 183 121 192 6 10 196 309 423 665
228 357 454 711 503 788 49 77 93 147 99 155 16 24 96 150 132 209 31 51 42
67 79 122 15 22 309 490 336 534 94 156 184 437 210 654 15 123 5 483 -13 513
-3 4 -9 33 -15 65 -6 32 -22 99 -36 148 -14 50 -27 99 -29 110 -2 11 -36 139
-74 285 -39 146 -73 272 -74 280 -11 46 -27 100 -31 100 -2 0 -47 -71 -101
-157z"/>
<path d="M406 7308 c-15 -52 -127 -463 -171 -628 -12 -47 -39 -143 -58 -215
-20 -71 -39 -146 -42 -165 -3 -19 -8 -48 -11 -65 -20 -113 -27 -429 -10 -482
3 -10 8 -35 10 -57 3 -21 8 -46 10 -55 3 -9 7 -27 10 -41 27 -156 97 -323 273
-655 38 -71 96 -179 128 -240 32 -60 74 -141 95 -180 21 -38 66 -124 100 -190
35 -66 75 -142 90 -170 15 -27 55 -104 90 -170 34 -66 79 -151 100 -190 45
-85 117 -222 195 -370 32 -60 72 -137 90 -170 18 -33 63 -118 100 -190 37 -71
78 -148 90 -171 24 -42 39 -72 53 -102 5 -9 25 -46 44 -82 19 -36 61 -114 93
-175 205 -390 250 -476 295 -560 21 -38 61 -115 90 -170 29 -55 70 -131 90
-170 20 -38 63 -119 95 -180 32 -60 77 -146 100 -190 24 -44 63 -118 87 -165
72 -137 163 -308 212 -400 25 -47 67 -127 93 -177 26 -51 50 -93 54 -93 6 0
17 16 69 105 10 17 81 135 159 263 190 315 230 402 268 582 23 115 23 344 -1
458 -32 150 -70 245 -193 472 -60 112 -142 267 -181 340 -18 36 -48 92 -66
125 -18 33 -61 114 -96 180 -34 66 -75 143 -90 170 -15 28 -51 95 -80 150 -29
55 -70 133 -91 173 -65 120 -114 212 -164 307 -26 50 -64 122 -85 160 -21 39
-57 106 -80 150 -23 44 -59 112 -80 150 -20 39 -61 115 -90 170 -29 55 -67
127 -85 160 -18 33 -54 101 -80 150 -26 50 -62 117 -80 150 -18 33 -61 114
-95 180 -35 66 -83 155 -107 199 -24 43 -43 80 -43 82 0 3 -31 62 -68 132 -72
133 -131 243 -202 377 -23 44 -59 112 -80 150 -39 72 -70 131 -180 340 -34 66
-70 134 -80 150 -10 17 -43 80 -75 140 -32 61 -75 142 -95 180 -21 39 -59 111
-85 160 -26 50 -60 113 -75 140 -15 28 -53 100 -85 160 -31 61 -59 111 -60
113 -2 2 -10 -20 -19 -50z"/>
</g>
</svg>
